<?xml version="1.0" encoding="UTF-8"?>
<!DOCTYPE svg PUBLIC "-//W3C//DTD SVG 1.1//EN" "http://www.w3.org/Graphics/SVG/1.1/DTD/svg11.dtd">
<svg xmlns="http://www.w3.org/2000/svg" version="1.1" width="850px" height="700px" style="shape-rendering:geometricPrecision; text-rendering:geometricPrecision; image-rendering:optimizeQuality; fill-rule:evenodd; clip-rule:evenodd" xmlns:xlink="http://www.w3.org/1999/xlink">
<g><path style="opacity:0.994" fill="#b868d5" d="M 525.5,16.5 C 525.824,43.2408 525.491,69.9075 524.5,96.5C 509.667,88.9206 495.334,80.5873 481.5,71.5C 482.825,51.5978 482.825,31.5978 481.5,11.5C 487.51,8.16222 493.51,4.82889 499.5,1.5C 508.519,6.00554 517.185,11.0055 525.5,16.5 Z"/></g>
<g><path style="opacity:0.981" fill="#be68d2" d="M 481.5,11.5 C 482.825,31.5978 482.825,51.5978 481.5,71.5C 464.059,61.9436 446.726,52.1103 429.5,42C 446.697,31.5696 464.03,21.4029 481.5,11.5 Z"/></g>
<g><path style="opacity:0.991" fill="#b268d9" d="M 525.5,16.5 C 542.502,25.665 559.169,35.3317 575.5,45.5C 574.174,72.4703 574.174,99.4703 575.5,126.5C 558.3,116.737 541.3,106.737 524.5,96.5C 525.491,69.9075 525.824,43.2408 525.5,16.5 Z"/></g>
<g><path style="opacity:0.991" fill="#ab68dd" d="M 575.5,45.5 C 589.168,52.6646 602.501,60.3312 615.5,68.5C 615.783,69.2891 616.283,69.9558 617,70.5C 617.568,127.836 617.401,185.169 616.5,242.5C 613.833,242.5 611.167,242.5 608.5,242.5C 608.667,210.165 608.5,177.832 608,145.5C 597.385,138.777 586.552,132.443 575.5,126.5C 574.174,99.4703 574.174,72.4703 575.5,45.5 Z"/></g>
<g><path style="opacity:0.991" fill="#c569cd" d="M 424.5,60.5 C 423.509,87.3983 423.176,114.065 423.5,140.5C 419.517,138.508 415.517,136.508 411.5,134.5C 406.816,136.842 402.15,139.175 397.5,141.5C 397.82,114.967 397.486,88.3007 396.5,61.5C 401.271,58.2744 406.271,55.2744 411.5,52.5C 416.065,54.9412 420.398,57.6079 424.5,60.5 Z"/></g>
<g><path style="opacity:0.997" fill="#c269cf" d="M 424.5,60.5 C 430.165,62.9969 435.498,65.9969 440.5,69.5C 440.226,87.3331 439.893,105.166 439.5,123C 439.498,131.861 438.831,140.361 437.5,148.5C 432.5,146.336 427.833,143.669 423.5,140.5C 423.176,114.065 423.509,87.3983 424.5,60.5 Z"/></g>
<g><path style="opacity:0.991" fill="#cb69ca" d="M 396.5,61.5 C 397.486,88.3007 397.82,114.967 397.5,141.5C 381.367,151.404 365.034,161.071 348.5,170.5C 347.167,143.5 347.167,116.5 348.5,89.5C 364.164,79.6653 380.164,70.332 396.5,61.5 Z"/></g>
<g><path style="opacity:0.991" fill="#be68d1" d="M 440.5,69.5 C 454.74,77.0723 468.74,85.0723 482.5,93.5C 482.5,120.5 482.5,147.5 482.5,174.5C 467.329,166.083 452.329,157.416 437.5,148.5C 438.831,140.361 439.498,131.861 439.5,123C 439.893,105.166 440.226,87.3331 440.5,69.5 Z"/></g>
<g><path style="opacity:0.997" fill="#a767df" d="M 615.5,68.5 C 622.996,71.7448 629.996,75.7448 636.5,80.5C 636.294,134.168 635.961,187.834 635.5,241.5C 631.298,241.183 627.298,241.517 623.5,242.5C 621.167,242.5 618.833,242.5 616.5,242.5C 617.401,185.169 617.568,127.836 617,70.5C 616.283,69.9558 615.783,69.2891 615.5,68.5 Z"/></g>
<g><path style="opacity:0.994" fill="#a467e1" d="M 636.5,80.5 C 644.171,84.3327 651.504,88.666 658.5,93.5C 659.495,142.762 659.828,192.095 659.5,241.5C 656.941,241.198 654.607,241.532 652.5,242.5C 642.833,242.5 633.167,242.5 623.5,242.5C 627.298,241.517 631.298,241.183 635.5,241.5C 635.961,187.834 636.294,134.168 636.5,80.5 Z"/></g>
<g><path style="opacity:0.991" fill="#d169c6" d="M 348.5,89.5 C 347.167,116.5 347.167,143.5 348.5,170.5C 334.301,178.766 319.968,186.766 305.5,194.5C 305.532,167.934 305.199,141.267 304.5,114.5C 318.834,105.664 333.5,97.3307 348.5,89.5 Z"/></g>
<g><path style="opacity:0.951" fill="#a167e3" d="M 658.5,93.5 C 665.518,96.76 672.351,100.427 679,104.5C 679.5,150.499 679.667,196.499 679.5,242.5C 670.5,242.5 661.5,242.5 652.5,242.5C 654.607,241.532 656.941,241.198 659.5,241.5C 659.828,192.095 659.495,142.762 658.5,93.5 Z"/></g>
<g><path style="opacity:0.994" fill="#b868d5" d="M 482.5,93.5 C 496.366,101.263 510.033,109.263 523.5,117.5C 523.062,117.435 522.728,117.601 522.5,118C 523.416,118.374 524.25,118.874 525,119.5C 524.788,145.487 524.455,171.487 524,197.5C 523.023,196.226 522.189,196.226 521.5,197.5C 508.3,190.071 495.3,182.404 482.5,174.5C 482.5,147.5 482.5,120.5 482.5,93.5 Z"/></g>
<g><path style="opacity:0.992" fill="#d769c3" d="M 304.5,114.5 C 305.199,141.267 305.532,167.934 305.5,194.5C 294.035,201.737 282.368,208.737 270.5,215.5C 269.177,188.899 269.177,162.233 270.5,135.5C 271.855,134.812 272.855,133.812 273.5,132.5C 283.634,126.263 293.967,120.263 304.5,114.5 Z"/></g>
<g><path style="opacity:0.99" fill="#b268d8" d="M 523.5,117.5 C 538.333,125.079 552.666,133.413 566.5,142.5C 565.806,168.941 564.806,195.274 563.5,221.5C 549.5,213.5 535.5,205.5 521.5,197.5C 522.189,196.226 523.023,196.226 524,197.5C 524.455,171.487 524.788,145.487 525,119.5C 524.25,118.874 523.416,118.374 522.5,118C 522.728,117.601 523.062,117.435 523.5,117.5 Z"/></g>
<g><path style="opacity:0.987" fill="#9b68e6" d="M 719.5,130.5 C 718.502,167.33 718.168,204.33 718.5,241.5C 722.702,241.183 726.702,241.517 730.5,242.5C 719.167,242.5 707.833,242.5 696.5,242.5C 696.167,200.828 696.5,159.161 697.5,117.5C 705.226,121.356 712.56,125.689 719.5,130.5 Z"/></g>
<g><path style="opacity:0.993" fill="#9867e8" d="M 719.5,130.5 C 730.333,135.746 740.666,141.746 750.5,148.5C 751.492,179.427 751.825,210.427 751.5,241.5C 754.059,241.198 756.393,241.532 758.5,242.5C 749.167,242.5 739.833,242.5 730.5,242.5C 726.702,241.517 722.702,241.183 718.5,241.5C 718.168,204.33 718.502,167.33 719.5,130.5 Z"/></g>
<g><path style="opacity:0.995" fill="#dc6abf" d="M 273.5,132.5 C 272.855,133.812 271.855,134.812 270.5,135.5C 269.177,162.233 269.177,188.899 270.5,215.5C 257.945,222.696 245.445,230.029 233,237.5C 232.333,210.167 232.333,182.833 233,155.5C 246.311,147.43 259.811,139.763 273.5,132.5 Z"/></g>
<g><path style="opacity:0.993" fill="#ad68db" d="M 566.5,142.5 C 574.466,146.776 582.466,151.11 590.5,155.5C 591.833,182.833 591.833,210.167 590.5,237.5C 581.461,232.104 572.461,226.771 563.5,221.5C 564.806,195.274 565.806,168.941 566.5,142.5 Z"/></g>
<g><path style="opacity:0.99" fill="#9467ea" d="M 750.5,148.5 C 755.605,150.887 760.605,153.554 765.5,156.5C 766.5,185.159 766.833,213.826 766.5,242.5C 763.833,242.5 761.167,242.5 758.5,242.5C 756.393,241.532 754.059,241.198 751.5,241.5C 751.825,210.427 751.492,179.427 750.5,148.5 Z"/></g>
<g><path style="opacity:0.988" fill="#c569cd" d="M 424.5,161.5 C 423.511,183.758 423.178,206.092 423.5,228.5C 416.003,233.137 408.336,237.637 400.5,242C 396.848,242.499 393.182,242.665 389.5,242.5C 391.607,241.532 393.941,241.198 396.5,241.5C 397.792,215.35 397.792,189.35 396.5,163.5C 401.222,160.127 406.222,157.127 411.5,154.5C 415.983,156.574 420.316,158.908 424.5,161.5 Z"/></g>
<g><path style="opacity:0.988" fill="#ca69ca" d="M 396.5,163.5 C 397.792,189.35 397.792,215.35 396.5,241.5C 393.941,241.198 391.607,241.532 389.5,242.5C 375.5,242.5 361.5,242.5 347.5,242.5C 348.152,225.466 347.485,208.8 345.5,192.5C 362.238,182.441 379.238,172.775 396.5,163.5 Z"/></g>
<g><path style="opacity:0.968" fill="#c068d0" d="M 424.5,161.5 C 443.801,172.151 462.801,183.317 481.5,195C 462.303,206.431 442.969,217.598 423.5,228.5C 423.178,206.092 423.511,183.758 424.5,161.5 Z"/></g>
<g><path style="opacity:0.97" fill="#d169c6" d="M 345.5,192.5 C 347.485,208.8 348.152,225.466 347.5,242.5C 330.833,242.5 314.167,242.5 297.5,242.5C 299.607,241.532 301.941,241.198 304.5,241.5C 305.134,233.097 304.467,225.097 302.5,217.5C 316.634,208.929 330.967,200.596 345.5,192.5 Z"/></g>
<g><path style="opacity:0.958" fill="#d669c3" d="M 302.5,217.5 C 304.467,225.097 305.134,233.097 304.5,241.5C 301.941,241.198 299.607,241.532 297.5,242.5C 284.829,242.667 272.162,242.5 259.5,242C 273.739,233.578 288.072,225.411 302.5,217.5 Z"/></g>
<g><path style="opacity:0.986" fill="#ea6ab7" d="M 129.5,288.5 C 127.541,282.25 126.874,275.584 127.5,268.5C 143.102,261.351 158.436,262.185 173.5,271C 175.208,272.51 176.874,274.01 178.5,275.5C 175.167,280.833 171.833,286.167 168.5,291.5C 156.192,280.978 143.192,279.978 129.5,288.5 Z"/></g>
<g><path style="opacity:0.963" fill="#d769c2" d="M 262.5,264.5 C 268.833,264.5 275.167,264.5 281.5,264.5C 281.5,288.833 281.5,313.167 281.5,337.5C 296.5,337.5 311.5,337.5 326.5,337.5C 326.5,343.833 326.5,350.167 326.5,356.5C 305.167,356.5 283.833,356.5 262.5,356.5C 262.5,325.833 262.5,295.167 262.5,264.5 Z"/></g>
<g><path style="opacity:0.986" fill="#cf69c7" d="M 347.5,264.5 C 347.751,294.846 347.418,325.179 346.5,355.5C 348.415,355.216 350.081,355.549 351.5,356.5C 346.167,356.5 340.833,356.5 335.5,356.5C 335.5,325.833 335.5,295.167 335.5,264.5C 339.5,264.5 343.5,264.5 347.5,264.5 Z"/></g>
<g><path style="opacity:0.952" fill="#cb69c9" d="M 347.5,264.5 C 364.5,264.5 381.5,264.5 398.5,264.5C 398.5,270.833 398.5,277.167 398.5,283.5C 383.833,283.5 369.167,283.5 354.5,283.5C 354.5,289.5 354.5,295.5 354.5,301.5C 364.5,301.5 374.5,301.5 384.5,301.5C 384.5,307.833 384.5,314.167 384.5,320.5C 374.5,320.5 364.5,320.5 354.5,320.5C 354.5,326.167 354.5,331.833 354.5,337.5C 369.167,337.5 383.833,337.5 398.5,337.5C 398.5,343.833 398.5,350.167 398.5,356.5C 382.833,356.5 367.167,356.5 351.5,356.5C 350.081,355.549 348.415,355.216 346.5,355.5C 347.418,325.179 347.751,294.846 347.5,264.5 Z"/></g>
<g><path style="opacity:0.962" fill="#b668d6" d="M 479.5,264.5 C 504.167,264.5 528.833,264.5 553.5,264.5C 553.5,270.833 553.5,277.167 553.5,283.5C 544.167,283.5 534.833,283.5 525.5,283.5C 525.5,307.833 525.5,332.167 525.5,356.5C 519.167,356.5 512.833,356.5 506.5,356.5C 506.5,332.167 506.5,307.833 506.5,283.5C 497.5,283.5 488.5,283.5 479.5,283.5C 479.5,277.167 479.5,270.833 479.5,264.5 Z"/></g>
<g><path style="opacity:0.971" fill="#8d66ef" d="M 836.5,265.5 C 836.793,272.255 836.46,278.922 835.5,285.5C 823.185,282.074 815.019,286.407 811,298.5C 810.5,305.492 810.334,312.492 810.5,319.5C 816.833,319.5 823.167,319.5 829.5,319.5C 831.607,320.468 833.941,320.802 836.5,320.5C 836.5,326.167 836.5,331.833 836.5,337.5C 839.059,337.198 841.393,337.532 843.5,338.5C 832.5,338.5 821.5,338.5 810.5,338.5C 810.5,344.5 810.5,350.5 810.5,356.5C 804.167,356.5 797.833,356.5 791.5,356.5C 791.333,336.497 791.5,316.497 792,296.5C 797.609,273.072 812.443,262.739 836.5,265.5 Z"/></g>
<g><path style="opacity:0.982" fill="#8166f5" d="M 879.5,264.5 C 885.833,264.5 892.167,264.5 898.5,264.5C 898.5,295.167 898.5,325.833 898.5,356.5C 892.167,356.5 885.833,356.5 879.5,356.5C 879.5,325.833 879.5,295.167 879.5,264.5 Z"/></g>
<g><path style="opacity:0.994" fill="#e46bbb" d="M 187.5,265.5 C 191.167,265.5 194.833,265.5 198.5,265.5C 198.5,295.833 198.5,326.167 198.5,356.5C 194.833,356.5 191.167,356.5 187.5,356.5C 187.5,326.167 187.5,295.833 187.5,265.5 Z"/></g>
<g><path style="opacity:0.988" fill="#e06abd" d="M 187.5,265.5 C 208.327,264.503 229.327,264.169 250.5,264.5C 250.5,270.833 250.5,277.167 250.5,283.5C 235.833,283.5 221.167,283.5 206.5,283.5C 206.5,289.5 206.5,295.5 206.5,301.5C 216.5,301.5 226.5,301.5 236.5,301.5C 236.5,307.833 236.5,314.167 236.5,320.5C 226.5,320.5 216.5,320.5 206.5,320.5C 206.5,326.167 206.5,331.833 206.5,337.5C 221.167,337.5 235.833,337.5 250.5,337.5C 250.5,343.833 250.5,350.167 250.5,356.5C 233.167,356.5 215.833,356.5 198.5,356.5C 198.5,326.167 198.5,295.833 198.5,265.5C 194.833,265.5 191.167,265.5 187.5,265.5 Z"/></g>
<g><path style="opacity:0.986" fill="#be68d1" d="M 453.5,264.5 C 460.167,264.5 466.833,264.5 473.5,264.5C 473.5,270.833 473.5,277.167 473.5,283.5C 462.167,283.5 450.833,283.5 439.5,283.5C 439.5,277.5 439.5,271.5 439.5,265.5C 444.363,265.819 449.03,265.486 453.5,264.5 Z"/></g>
<g><path style="opacity:1" fill="#ae68da" d="M 561.5,264.5 C 567.833,264.5 574.167,264.5 580.5,264.5C 580.5,295.167 580.5,325.833 580.5,356.5C 574.167,356.5 567.833,356.5 561.5,356.5C 561.5,325.833 561.5,295.167 561.5,264.5 Z"/></g>
<g><path style="opacity:0.975" fill="#a367e1" d="M 635.5,265.5 C 652.191,267.351 663.025,276.351 668,292.5C 668.5,313.831 668.667,335.164 668.5,356.5C 662.167,356.5 655.833,356.5 649.5,356.5C 649.5,350.5 649.5,344.5 649.5,338.5C 640.833,338.5 632.167,338.5 623.5,338.5C 627.298,337.517 631.298,337.183 635.5,337.5C 635.5,331.5 635.5,325.5 635.5,319.5C 640.167,319.5 644.833,319.5 649.5,319.5C 649.666,311.826 649.5,304.159 649,296.5C 646.818,289.815 642.318,285.815 635.5,284.5C 635.5,278.167 635.5,271.833 635.5,265.5 Z"/></g>
<g><path style="opacity:0.958" fill="#9d68e5" d="M 718.5,337.5 C 718.5,343.5 718.5,349.5 718.5,355.5C 722.371,355.185 726.038,355.518 729.5,356.5C 714.167,356.5 698.833,356.5 683.5,356.5C 683.5,325.833 683.5,295.167 683.5,264.5C 689.833,264.5 696.167,264.5 702.5,264.5C 702.5,288.833 702.5,313.167 702.5,337.5C 707.833,337.5 713.167,337.5 718.5,337.5 Z"/></g>
<g><path style="opacity:0.971" fill="#c469ce" d="M 453.5,264.5 C 449.03,265.486 444.363,265.819 439.5,265.5C 439.5,271.5 439.5,277.5 439.5,283.5C 435.418,283.344 431.418,283.844 427.5,285C 420.833,290 420.833,295 427.5,300C 429.74,300.977 432.073,301.477 434.5,301.5C 435.919,302.451 437.585,302.784 439.5,302.5C 439.5,308.167 439.5,313.833 439.5,319.5C 442.059,319.198 444.393,319.532 446.5,320.5C 440.158,320.666 433.825,320.5 427.5,320C 412.597,316.926 404.597,307.76 403.5,292.5C 404.705,276.797 413.038,267.63 428.5,265C 436.827,264.5 445.16,264.334 453.5,264.5 Z"/></g>
<g><path style="opacity:0.979" fill="#8866f3" d="M 836.5,265.5 C 850.443,269.609 859.609,278.609 864,292.5C 865.418,313.798 865.918,335.131 865.5,356.5C 858.833,356.5 852.167,356.5 845.5,356.5C 846.12,350.074 845.453,344.074 843.5,338.5C 841.393,337.532 839.059,337.198 836.5,337.5C 836.5,331.833 836.5,326.167 836.5,320.5C 833.941,320.802 831.607,320.468 829.5,319.5C 834.833,319.5 840.167,319.5 845.5,319.5C 845.666,311.826 845.5,304.159 845,296.5C 843.431,291.433 840.264,287.766 835.5,285.5C 836.46,278.922 836.793,272.255 836.5,265.5 Z"/></g>
<g><path style="opacity:0.956" fill="#a967de" d="M 635.5,265.5 C 635.5,271.833 635.5,278.167 635.5,284.5C 626.936,283.366 620.436,286.7 616,294.5C 614.63,302.764 614.13,311.097 614.5,319.5C 621.5,319.5 628.5,319.5 635.5,319.5C 635.5,325.5 635.5,331.5 635.5,337.5C 631.298,337.183 627.298,337.517 623.5,338.5C 620.5,338.5 617.5,338.5 614.5,338.5C 614.5,344.5 614.5,350.5 614.5,356.5C 608.167,356.5 601.833,356.5 595.5,356.5C 595.333,336.164 595.5,315.831 596,295.5C 601.083,274.721 614.249,264.721 635.5,265.5 Z"/></g>
<g><path style="opacity:0.985" fill="#ef6ab4" d="M 127.5,268.5 C 126.874,275.584 127.541,282.25 129.5,288.5C 118.236,300.261 116.569,313.261 124.5,327.5C 124.284,329.681 125.117,331.347 127,332.5C 127.5,339.492 127.666,346.492 127.5,353.5C 106.279,342.729 97.4459,325.395 101,301.5C 104.151,285.857 112.985,274.857 127.5,268.5 Z"/></g>
<g><path style="opacity:0.965" fill="#bf68d0" d="M 434.5,301.5 C 441.841,301.334 449.174,301.5 456.5,302C 469.558,305.916 476.558,314.749 477.5,328.5C 476.536,343.296 468.869,352.462 454.5,356C 439.17,356.5 423.837,356.667 408.5,356.5C 408.5,350.167 408.5,343.833 408.5,337.5C 422.837,337.667 437.171,337.5 451.5,337C 455.59,335.673 457.923,332.84 458.5,328.5C 456.869,322.347 452.869,319.681 446.5,320.5C 444.393,319.532 442.059,319.198 439.5,319.5C 439.5,313.833 439.5,308.167 439.5,302.5C 437.585,302.784 435.919,302.451 434.5,301.5 Z"/></g>
<g><path style="opacity:0.981" fill="#ea6ab7" d="M 124.5,327.5 C 138.099,342.246 152.766,343.246 168.5,330.5C 171.833,335.833 175.167,341.167 178.5,346.5C 166.001,357.038 151.668,360.538 135.5,357C 132.524,356.295 129.858,355.129 127.5,353.5C 127.666,346.492 127.5,339.492 127,332.5C 125.117,331.347 124.284,329.681 124.5,327.5 Z"/></g>
<g><path style="opacity:0.964" fill="#9768e8" d="M 718.5,337.5 C 728.5,337.5 738.5,337.5 748.5,337.5C 748.5,343.833 748.5,350.167 748.5,356.5C 742.167,356.5 735.833,356.5 729.5,356.5C 726.038,355.518 722.371,355.185 718.5,355.5C 718.5,349.5 718.5,343.5 718.5,337.5 Z"/></g>
<g><path style="opacity:0.997" fill="#db6ac0" d="M 268.5,379.5 C 268.832,415.004 268.498,450.337 267.5,485.5C 255.782,479.224 244.282,472.557 233,465.5C 232.5,436.835 232.333,408.169 232.5,379.5C 244.5,379.5 256.5,379.5 268.5,379.5 Z"/></g>
<g><path style="opacity:0.993" fill="#d769c2" d="M 268.5,379.5 C 279.833,379.5 291.167,379.5 302.5,379.5C 302.833,421.505 302.5,463.505 301.5,505.5C 290.104,498.807 278.77,492.14 267.5,485.5C 268.498,450.337 268.832,415.004 268.5,379.5 Z"/></g>
<g><path style="opacity:0.968" fill="#d069c6" d="M 351.5,379.5 C 350.081,380.451 348.415,380.784 346.5,380.5C 346.832,431.003 346.499,481.336 345.5,531.5C 337.222,527.061 329.055,522.394 321,517.5C 320.5,471.501 320.333,425.501 320.5,379.5C 330.833,379.5 341.167,379.5 351.5,379.5 Z"/></g>
<g><path style="opacity:0.994" fill="#cb69ca" d="M 351.5,379.5 C 364.5,379.5 377.5,379.5 390.5,379.5C 389.852,412.39 390.518,445.056 392.5,477.5C 392.787,479.121 393.787,480.121 395.5,480.5C 396.738,507.171 396.738,533.838 395.5,560.5C 378.798,550.818 362.131,541.152 345.5,531.5C 346.499,481.336 346.832,431.003 346.5,380.5C 348.415,380.784 350.081,380.451 351.5,379.5 Z"/></g>
<g><path style="opacity:0.989" fill="#ab68dd" d="M 616.5,379.5 C 616.5,403.5 616.5,427.5 616.5,451.5C 607.061,457.392 597.394,463.059 587.5,468.5C 582.806,465.821 578.139,463.155 573.5,460.5C 573.188,438.455 573.522,416.455 574.5,394.5C 582.806,389.678 591.139,384.845 599.5,380C 605.157,379.501 610.824,379.334 616.5,379.5 Z"/></g>
<g><path style="opacity:0.982" fill="#a568e0" d="M 616.5,379.5 C 628.167,379.5 639.833,379.5 651.5,379.5C 653.607,380.468 655.941,380.802 658.5,380.5C 658.17,396.009 658.504,411.342 659.5,426.5C 645.448,435.197 631.115,443.53 616.5,451.5C 616.5,427.5 616.5,403.5 616.5,379.5 Z"/></g>
<g><path style="opacity:0.974" fill="#9f67e4" d="M 651.5,379.5 C 681.169,379.333 710.835,379.5 740.5,380C 713.771,396.029 686.771,411.529 659.5,426.5C 658.504,411.342 658.17,396.009 658.5,380.5C 655.941,380.802 653.607,380.468 651.5,379.5 Z"/></g>
<g><path style="opacity:0.985" fill="#9467ea" d="M 748.5,477.5 C 748.461,476.244 748.961,475.244 750,474.5C 751.235,447.768 751.401,421.102 750.5,394.5C 755.721,391.638 760.888,388.638 766,385.5C 766.833,412.839 766.667,440.173 765.5,467.5C 759.641,470.593 753.975,473.926 748.5,477.5 Z"/></g>
<g><path style="opacity:0.996" fill="#c369ce" d="M 439.5,403.5 C 438.585,430.153 438.251,456.82 438.5,483.5C 428.146,478.238 417.979,472.571 408,466.5C 407.167,439.494 407.333,412.494 408.5,385.5C 419.06,391.274 429.393,397.274 439.5,403.5 Z"/></g>
<g><path style="opacity:0.993" fill="#9867e8" d="M 750.5,394.5 C 751.401,421.102 751.235,447.768 750,474.5C 748.961,475.244 748.461,476.244 748.5,477.5C 732.67,486.247 717.004,495.247 701.5,504.5C 701.5,477.5 701.5,450.5 701.5,423.5C 717.633,413.596 733.966,403.929 750.5,394.5 Z"/></g>
<g><path style="opacity:0.977" fill="#b169d9" d="M 574.5,394.5 C 573.522,416.455 573.188,438.455 573.5,460.5C 554.697,449.931 536.03,439.098 517.5,428C 536.199,416.317 555.199,405.151 574.5,394.5 Z"/></g>
<g><path style="opacity:0.99" fill="#be68d1" d="M 439.5,403.5 C 453.5,411.5 467.5,419.5 481.5,427.5C 481.5,454.5 481.5,481.5 481.5,508.5C 466.667,500.921 452.334,492.587 438.5,483.5C 438.251,456.82 438.585,430.153 439.5,403.5 Z"/></g>
<g><path style="opacity:0.99" fill="#9f67e4" d="M 701.5,423.5 C 701.5,450.5 701.5,477.5 701.5,504.5C 687.301,512.766 672.968,520.766 658.5,528.5C 658.831,501.661 658.498,474.995 657.5,448.5C 671.834,439.664 686.5,431.331 701.5,423.5 Z"/></g>
<g><path style="opacity:0.995" fill="#b868d5" d="M 481.5,427.5 C 495.866,435.344 509.866,443.678 523.5,452.5C 524.158,479.188 523.491,505.521 521.5,531.5C 507.832,524.335 494.499,516.669 481.5,508.5C 481.5,481.5 481.5,454.5 481.5,427.5 Z"/></g>
<g><path style="opacity:0.991" fill="#b268d9" d="M 523.5,452.5 C 540.762,461.775 557.762,471.441 574.5,481.5C 573.509,508.092 573.176,534.759 573.5,561.5C 555.832,552.002 538.499,542.002 521.5,531.5C 523.491,505.521 524.158,479.188 523.5,452.5 Z"/></g>
<g><path style="opacity:0.991" fill="#a667e0" d="M 657.5,448.5 C 658.498,474.995 658.831,501.661 658.5,528.5C 643.998,537.921 628.998,546.588 613.5,554.5C 613.783,553.711 614.283,553.044 615,552.5C 615.837,526.168 616.17,499.834 616,473.5C 615.31,474.738 614.81,474.738 614.5,473.5C 628.634,464.929 642.967,456.596 657.5,448.5 Z"/></g>
<g><path style="opacity:0.991" fill="#ab68dd" d="M 614.5,473.5 C 614.81,474.738 615.31,474.738 616,473.5C 616.17,499.834 615.837,526.168 615,552.5C 614.283,553.044 613.783,553.711 613.5,554.5C 605.1,560.367 596.267,565.701 587,570.5C 582.521,567.353 578.021,564.353 573.5,561.5C 573.176,534.759 573.509,508.092 574.5,481.5C 578.966,483.566 583.299,485.9 587.5,488.5C 596.393,483.222 605.393,478.222 614.5,473.5 Z"/></g>
<g><path style="opacity:0.991" fill="#c569cd" d="M 392.5,477.5 C 403.533,483.344 414.199,489.678 424.5,496.5C 422.525,522.478 421.525,548.812 421.5,575.5C 412.833,570.5 404.167,565.5 395.5,560.5C 396.738,533.838 396.738,507.171 395.5,480.5C 393.787,480.121 392.787,479.121 392.5,477.5 Z"/></g>
<g><path style="opacity:0.995" fill="#c268cf" d="M 424.5,496.5 C 429.5,498.664 434.167,501.331 438.5,504.5C 438.824,531.241 438.491,557.908 437.5,584.5C 432.167,581.5 426.833,578.5 421.5,575.5C 421.525,548.812 422.525,522.478 424.5,496.5 Z"/></g>
<g><path style="opacity:0.99" fill="#be68d1" d="M 438.5,504.5 C 453.5,512.331 468.166,520.664 482.5,529.5C 481.858,555.845 480.858,582.179 479.5,608.5C 465.166,601.002 451.166,593.002 437.5,584.5C 438.491,557.908 438.824,531.241 438.5,504.5 Z"/></g>
<g><path style="opacity:0.993" fill="#b868d5" d="M 482.5,529.5 C 496.366,537.263 510.033,545.263 523.5,553.5C 524.11,572.001 523.443,590.334 521.5,608.5C 514.587,612.875 507.42,616.875 500,620.5C 492.709,617.111 485.876,613.111 479.5,608.5C 480.858,582.179 481.858,555.845 482.5,529.5 Z"/></g>
<g><path style="opacity:0.976" fill="#b368d8" d="M 523.5,553.5 C 539.341,561.683 554.674,570.683 569.5,580.5C 553.472,589.845 537.472,599.178 521.5,608.5C 523.443,590.334 524.11,572.001 523.5,553.5 Z"/></g>
</svg>
