<?xml version="1.0" encoding="UTF-8"?>
<!DOCTYPE svg PUBLIC "-//W3C//DTD SVG 1.1//EN" "http://www.w3.org/Graphics/SVG/1.1/DTD/svg11.dtd">
<svg xmlns="http://www.w3.org/2000/svg" version="1.1" width="111px" height="111px" style="shape-rendering:geometricPrecision; text-rendering:geometricPrecision; image-rendering:optimizeQuality; fill-rule:evenodd; clip-rule:evenodd" xmlns:xlink="http://www.w3.org/1999/xlink">
<g><path style="opacity:0.951" fill="#c068d0" d="M 63.5,13.5 C 62.9499,17.1447 62.9499,20.3114 63.5,23C 62.7562,24.0386 61.7562,24.5386 60.5,24.5C 57.4838,23.6569 54.8171,22.1569 52.5,20C 55.8924,17.3063 59.5591,15.1396 63.5,13.5 Z"/></g>
<g><path style="opacity:1" fill="#b268d9" d="M 63.5,13.5 C 67.6119,14.7219 71.2786,16.7219 74.5,19.5C 73.2089,20.5417 73.2089,21.7083 74.5,23C 71.8333,23.6667 71.8333,24.3333 74.5,25C 71.8333,25.6667 71.8333,26.3333 74.5,27C 71.8333,27.6667 71.8333,28.3333 74.5,29C 73.3157,30.1455 73.3157,31.3121 74.5,32.5C 69.4997,30.3357 64.833,27.669 60.5,24.5C 61.7562,24.5386 62.7562,24.0386 63.5,23C 62.9499,20.3114 62.9499,17.1447 63.5,13.5 Z"/></g>
<g><path style="opacity:1" fill="#d069c7" d="M 50.5,21.5 C 50.8693,23.4412 51.536,25.2745 52.5,27C 51.8763,29.9764 51.8763,33.1431 52.5,36.5C 51.4168,36.4606 50.4168,36.1272 49.5,35.5C 47.1495,36.8611 44.8162,38.1944 42.5,39.5C 42.595,35.4764 42.595,30.8098 42.5,25.5C 44.8485,23.659 47.5152,22.3257 50.5,21.5 Z"/></g>
<g><path style="opacity:1" fill="#a367e2" d="M 74.5,19.5 C 78.6553,20.7417 82.322,22.7417 85.5,25.5C 84.3157,26.6879 84.3157,27.8545 85.5,29C 83.4873,29.8753 83.4873,31.2087 85.5,33C 84.1667,35 84.1667,37 85.5,39C 84.9535,39.9246 84.2868,40.7579 83.5,41.5C 82.8302,39.7086 82.1635,38.0419 81.5,36.5C 78.6689,35.9213 76.3356,34.588 74.5,32.5C 73.3157,31.3121 73.3157,30.1455 74.5,29C 71.8333,28.3333 71.8333,27.6667 74.5,27C 71.8333,26.3333 71.8333,25.6667 74.5,25C 71.8333,24.3333 71.8333,23.6667 74.5,23C 73.2089,21.7083 73.2089,20.5417 74.5,19.5 Z"/></g>
<g><path style="opacity:0.968" fill="#bf69d1" d="M 50.5,21.5 C 54.5,23.8333 58.5,26.1667 62.5,28.5C 63.7666,32.824 63.7666,36.824 62.5,40.5C 64.396,41.4656 66.396,41.7989 68.5,41.5C 71.7131,41.19 74.7131,41.5233 77.5,42.5C 72.1563,42.666 66.8229,42.4994 61.5,42C 58.1019,40.6429 55.1019,38.8096 52.5,36.5C 51.8763,33.1431 51.8763,29.9764 52.5,27C 51.536,25.2745 50.8693,23.4412 50.5,21.5 Z"/></g>
<g><path style="opacity:0.991" fill="#9867e9" d="M 85.5,25.5 C 88.0255,26.6808 90.5255,28.0142 93,29.5C 93.9764,41.6565 93.6431,53.6565 92,65.5C 91.5003,57.8406 91.3336,50.1739 91.5,42.5C 88.1667,42.5 84.8333,42.5 81.5,42.5C 81.5,40.5 81.5,38.5 81.5,36.5C 82.1635,38.0419 82.8302,39.7086 83.5,41.5C 84.2868,40.7579 84.9535,39.9246 85.5,39C 84.1667,37 84.1667,35 85.5,33C 83.4873,31.2087 83.4873,29.8753 85.5,29C 84.3157,27.8545 84.3157,26.6879 85.5,25.5 Z"/></g>
<g><path style="opacity:0.984" fill="#b668d7" d="M 62.5,28.5 C 64.5368,29.8465 66.5368,31.1798 68.5,32.5C 69.8333,35.5 69.8333,38.5 68.5,41.5C 66.396,41.7989 64.396,41.4656 62.5,40.5C 63.7666,36.824 63.7666,32.824 62.5,28.5 Z"/></g>
<g><path style="opacity:1" fill="#dc6ac0" d="M 42.5,25.5 C 42.595,30.8098 42.595,35.4764 42.5,39.5C 38.5,41.8333 34.5,44.1667 30.5,46.5C 31.4132,44.9139 31.4132,43.4139 30.5,42C 33.1667,41.3333 33.1667,40.6667 30.5,40C 33.1667,39.3333 33.1667,38.6667 30.5,38C 31.1667,37.6667 31.8333,37.3333 32.5,37C 32.0257,35.2714 31.0257,34.1047 29.5,33.5C 33.6301,30.5968 37.9634,27.9301 42.5,25.5 Z"/></g>
<g><path style="opacity:1" fill="#9867e9" d="M 103.5,36.5 C 101.83,36.2488 100.33,35.5822 99,34.5C 98.8333,35.8333 98.6667,37.1667 98.5,38.5C 98.7575,49.0061 99.0908,59.1728 99.5,69C 97.4873,69.8753 97.4873,71.2087 99.5,73C 96.8333,73.6667 96.8333,74.3333 99.5,75C 98.2264,75.9772 98.2264,76.8106 99.5,77.5C 97.3239,79.5152 94.8239,81.1819 92,82.5C 91.3333,77.8333 91.3333,73.1667 92,68.5C 92.6891,67.6433 93.5224,66.9767 94.5,66.5C 95.4988,55.1862 95.8322,43.8529 95.5,32.5C 98.7541,32.7936 101.421,34.127 103.5,36.5 Z"/></g>
<g><path style="opacity:1" fill="#8766f3" d="M 103.5,36.5 C 105.17,36.7512 106.67,37.4178 108,38.5C 108.833,50.1809 108.666,61.8476 107.5,73.5C 105.045,75.2967 102.378,76.63 99.5,77.5C 98.2264,76.8106 98.2264,75.9772 99.5,75C 96.8333,74.3333 96.8333,73.6667 99.5,73C 97.4873,71.2087 97.4873,69.8753 99.5,69C 99.0908,59.1728 98.7575,49.0061 98.5,38.5C 98.6667,37.1667 98.8333,35.8333 99,34.5C 100.33,35.5822 101.83,36.2488 103.5,36.5 Z"/></g>
<g><path style="opacity:1" fill="#ea6ab7" d="M 29.5,33.5 C 31.0257,34.1047 32.0257,35.2714 32.5,37C 31.8333,37.3333 31.1667,37.6667 30.5,38C 33.1667,38.6667 33.1667,39.3333 30.5,40C 33.1667,40.6667 33.1667,41.3333 30.5,42C 31.4132,43.4139 31.4132,44.9139 30.5,46.5C 27.1088,48.6146 23.6088,50.6146 20,52.5C 16.5747,42.439 19.7414,36.1056 29.5,33.5 Z"/></g>
<g><path style="opacity:0.995" fill="#ac68dd" d="M 68.5,32.5 C 72.1894,34.0969 75.6894,36.0969 79,38.5C 79.8442,40.4628 79.3442,41.7961 77.5,42.5C 74.7131,41.5233 71.7131,41.19 68.5,41.5C 69.8333,38.5 69.8333,35.5 68.5,32.5 Z"/></g>
<g><path style="opacity:1" fill="#ce69c8" d="M 54.5,40.5 C 51.5,41.8333 48.5,41.8333 45.5,40.5C 48.3793,37.9471 51.3793,37.9471 54.5,40.5 Z"/></g>
<g><path style="opacity:0.422" fill="#ba67d4" d="M 45.5,40.5 C 48.5,41.8333 51.5,41.8333 54.5,40.5C 55.2891,40.7828 55.9558,41.2828 56.5,42C 51.8333,42.6667 47.1667,42.6667 42.5,42C 43.5266,41.4867 44.5266,40.9867 45.5,40.5 Z"/></g>
<g><path style="opacity:1" fill="#de6abe" d="M 32.5,61.5 C 31.7759,57.4108 31.4426,53.0775 31.5,48.5C 32.8484,47.3994 34.3484,46.3994 36,45.5C 36.6667,50.1667 36.6667,54.8333 36,59.5C 35.1841,60.8228 34.0174,61.4894 32.5,61.5 Z"/></g>
<g><path style="opacity:1" fill="#e76ab9" d="M 31.5,48.5 C 31.4426,53.0775 31.7759,57.4108 32.5,61.5C 32.5,61.8333 32.5,62.1667 32.5,62.5C 31.8333,73.5 31.1667,84.5 30.5,95.5C 28.1184,94.6493 26.1184,93.316 24.5,91.5C 25.2389,91.631 25.9056,91.4643 26.5,91C 26.1805,77.3289 25.8472,64.4956 25.5,52.5C 27.1184,50.684 29.1184,49.3507 31.5,48.5 Z"/></g>
<g><path style="opacity:0.843" fill="#c169d0" d="M 52.5,48.5 C 56.9926,48.1599 60.6593,49.6599 63.5,53C 62.7046,54.7946 61.5379,56.2946 60,57.5C 57.0316,55.9217 53.8649,55.255 50.5,55.5C 50.9528,54.5416 51.6195,53.7083 52.5,53C 51.2721,51.5098 51.2721,50.0098 52.5,48.5 Z"/></g>
<g><path style="opacity:1" fill="#a467e1" d="M 84.5,51.5 C 84.3663,57.254 84.6997,63.0873 85.5,69C 82.8333,69.6667 82.8333,70.3333 85.5,71C 84.8828,73.277 84.2161,75.4437 83.5,77.5C 83.5,76.1667 83.5,74.8333 83.5,73.5C 80.3107,72.8339 76.9773,72.1672 73.5,71.5C 73.7093,70.914 74.0426,70.414 74.5,70C 71.7135,67.1174 71.0469,63.9507 72.5,60.5C 72.5,62.5 72.5,64.5 72.5,66.5C 76.1667,66.5 79.8333,66.5 83.5,66.5C 84.7448,61.1178 82.9115,57.4511 78,55.5C 76.415,56.0439 74.915,56.7106 73.5,57.5C 73.5835,55.2635 73.2502,52.9302 72.5,50.5C 73.964,49.8401 75.6307,49.5068 77.5,49.5C 80.2046,49.3161 82.5379,49.9827 84.5,51.5 Z"/></g>
<g><path style="opacity:1" fill="#d269c6" d="M 52.5,48.5 C 51.2721,50.0098 51.2721,51.5098 52.5,53C 51.6195,53.7083 50.9528,54.5416 50.5,55.5C 42.3167,61.631 42.6501,67.2977 51.5,72.5C 51.7833,75.1652 52.1166,77.4986 52.5,79.5C 38.228,75.2805 34.728,66.6138 42,53.5C 45.0508,50.8913 48.5508,49.2246 52.5,48.5 Z"/></g>
<g><path style="opacity:1" fill="#af68db" d="M 72.5,50.5 C 73.2502,52.9302 73.5835,55.2635 73.5,57.5C 72.8902,58.391 72.5569,59.391 72.5,60.5C 71.0469,63.9507 71.7135,67.1174 74.5,70C 74.0426,70.414 73.7093,70.914 73.5,71.5C 76.9773,72.1672 80.3107,72.8339 83.5,73.5C 79.8333,73.5 76.1667,73.5 72.5,73.5C 72.5,75.1667 72.5,76.8333 72.5,78.5C 70.1667,78.5 67.8333,78.5 65.5,78.5C 65.3337,71.825 65.5004,65.1583 66,58.5C 66.5512,54.4549 68.7179,51.7883 72.5,50.5 Z"/></g>
<g><path style="opacity:1" fill="#ef6ab4" d="M 25.5,52.5 C 25.8472,64.4956 26.1805,77.3289 26.5,91C 25.9056,91.4643 25.2389,91.631 24.5,91.5C 22.847,91.3404 21.5137,90.6737 20.5,89.5C 20.1887,77.7527 20.522,66.0861 21.5,54.5C 22.5137,53.3263 23.847,52.6596 25.5,52.5 Z"/></g>
<g><path style="opacity:1" fill="#9867e9" d="M 84.5,51.5 C 86.5041,52.6728 88.0041,54.3395 89,56.5C 89.4997,63.8258 89.6663,71.1591 89.5,78.5C 87.2646,78.7947 85.2646,78.4614 83.5,77.5C 84.2161,75.4437 84.8828,73.277 85.5,71C 82.8333,70.3333 82.8333,69.6667 85.5,69C 84.6997,63.0873 84.3663,57.254 84.5,51.5 Z"/></g>
<g><path style="opacity:0.271" fill="#e369bb" d="M 21.5,54.5 C 20.522,66.0861 20.1887,77.7527 20.5,89.5C 19.8338,83.8432 19.5005,78.0098 19.5,72C 19.5042,65.793 20.1709,59.9597 21.5,54.5 Z"/></g>
<g><path style="opacity:0.141" fill="#be68d3" d="M 32.5,62.5 C 32.8322,73.8529 32.4988,85.1862 31.5,96.5C 30.8933,96.3764 30.56,96.0431 30.5,95.5C 31.1667,84.5 31.8333,73.5 32.5,62.5 Z"/></g>
<g><path style="opacity:0.665" fill="#dc6ac0" d="M 40.5,85.5 C 41.7775,86.7495 42.7775,88.2495 43.5,90C 43.0631,92.4494 43.0631,94.7827 43.5,97C 40.8333,97.6667 40.8333,98.3333 43.5,99C 42.4186,100.711 42.752,102.211 44.5,103.5C 41.3081,101.986 38.1414,100.32 35,98.5C 34.0236,86.3435 34.3569,74.3435 36,62.5C 36.4997,70.1594 36.6664,77.8261 36.5,85.5C 37.8333,85.5 39.1667,85.5 40.5,85.5 Z"/></g>
<g><path style="opacity:1" fill="#c269cf" d="M 52.5,79.5 C 52.1166,77.4986 51.7833,75.1652 51.5,72.5C 54.5279,72.6611 57.3612,71.9944 60,70.5C 64.9194,74.6134 64.0861,77.4467 57.5,79C 55.8659,79.4935 54.1992,79.6602 52.5,79.5 Z"/></g>
<g><path style="opacity:1" fill="#8e66ee" d="M 93.5,97.5 C 92.7611,97.631 92.0944,97.4643 91.5,97C 92.027,93.2639 92.027,89.4306 91.5,85.5C 96.8532,82.0667 102.353,78.7334 108,75.5C 108.667,80.1667 108.667,84.8333 108,89.5C 103.353,92.5718 98.5201,95.2385 93.5,97.5 Z"/></g>
<g><path style="opacity:0.813" fill="#c068d1" d="M 65.5,85.5 C 63.0904,86.5321 61.7571,88.0321 61.5,90C 64.1667,90.6667 64.1667,91.3333 61.5,92C 62.1667,92.3333 62.8333,92.6667 63.5,93C 62.2903,94.8946 62.6236,96.728 64.5,98.5C 59.7283,96.2796 55.0616,93.7796 50.5,91C 48.8446,89.5557 48.178,87.7224 48.5,85.5C 54.1667,85.5 59.8333,85.5 65.5,85.5 Z"/></g>
<g><path style="opacity:0.971" fill="#9967e8" d="M 91.5,85.5 C 92.027,89.4306 92.027,93.2639 91.5,97C 92.0944,97.4643 92.7611,97.631 93.5,97.5C 91.178,99.664 88.5113,101.331 85.5,102.5C 85.4226,101.25 84.756,100.417 83.5,100C 85.5127,99.1247 85.5127,97.7913 83.5,96C 84.1667,95.6667 84.8333,95.3333 85.5,95C 84.5863,93.1003 84.5863,90.9337 85.5,88.5C 87.5,87.5 89.5,86.5 91.5,85.5 Z"/></g>
<g><path style="opacity:1" fill="#a767df" d="M 71.5,86.5 C 75.9811,85.3516 80.6478,85.1849 85.5,86C 83.0829,87.6258 80.5829,89.1258 78,90.5C 76.0562,88.7794 73.8895,87.446 71.5,86.5 Z"/></g>
<g><path style="opacity:1" fill="#b168d9" d="M 65.5,85.5 C 68.6612,86.9131 71.6612,88.5797 74.5,90.5C 73.4023,93.3839 73.4023,96.2172 74.5,99C 71.8333,99.6667 71.8333,100.333 74.5,101C 73.7476,101.671 73.4142,102.504 73.5,103.5C 70.2402,102.226 67.2402,100.56 64.5,98.5C 62.6236,96.728 62.2903,94.8946 63.5,93C 62.8333,92.6667 62.1667,92.3333 61.5,92C 64.1667,91.3333 64.1667,90.6667 61.5,90C 61.7571,88.0321 63.0904,86.5321 65.5,85.5 Z"/></g>
<g><path style="opacity:1" fill="#a467e1" d="M 85.5,88.5 C 84.5863,90.9337 84.5863,93.1003 85.5,95C 84.8333,95.3333 84.1667,95.6667 83.5,96C 85.5127,97.7913 85.5127,99.1247 83.5,100C 84.756,100.417 85.4226,101.25 85.5,102.5C 83.3549,104.075 81.0215,105.409 78.5,106.5C 76.5548,105.872 74.8881,104.872 73.5,103.5C 73.4142,102.504 73.7476,101.671 74.5,101C 71.8333,100.333 71.8333,99.6667 74.5,99C 73.4023,96.2172 73.4023,93.3839 74.5,90.5C 75.8068,91.1534 77.1401,91.8201 78.5,92.5C 80.8505,91.1389 83.1838,89.8056 85.5,88.5 Z"/></g>
<g><path style="opacity:1" fill="#ce69c8" d="M 40.5,85.5 C 42.5,85.5 44.5,85.5 46.5,85.5C 45.7929,89.7634 47.4596,92.43 51.5,93.5C 52.7861,98.4815 52.7861,103.148 51.5,107.5C 48.9959,106.416 46.6626,105.083 44.5,103.5C 42.752,102.211 42.4186,100.711 43.5,99C 40.8333,98.3333 40.8333,97.6667 43.5,97C 43.0631,94.7827 43.0631,92.4494 43.5,90C 42.7775,88.2495 41.7775,86.7495 40.5,85.5 Z"/></g>
<g><path style="opacity:0.961" fill="#c069d0" d="M 51.5,93.5 C 55.5,95.8333 59.5,98.1667 63.5,100.5C 62.7702,105.071 62.7702,109.738 63.5,114.5C 59.1638,112.668 55.1638,110.335 51.5,107.5C 52.7861,103.148 52.7861,98.4815 51.5,93.5 Z"/></g>
<g><path style="opacity:0.983" fill="#b568d7" d="M 63.5,100.5 C 67.6401,102.739 71.6401,105.239 75.5,108C 71.8816,110.974 67.8816,113.141 63.5,114.5C 62.7702,109.738 62.7702,105.071 63.5,100.5 Z"/></g>
</svg>
